<svg xmlns="http://www.w3.org/2000/svg" viewBox="0 0 32 32" id="movie"><g data-name="Layer 2"><path d="M14.28,24.67a1.11,1.11,0,0,1-1.11-1.11v-7a1.11,1.11,0,0,1,1.71-.93l5.44,3.51a1.11,1.11,0,0,1,0,1.86L14.88,24.5A1.12,1.12,0,0,1,14.28,24.67Zm.89-6.48v3.74l2.9-1.87Z"></path><path d="M27.85,29H4.15A3.15,3.15,0,0,1,1,25.85V11H31V25.85A3.15,3.15,0,0,1,27.85,29ZM3,13V25.85A1.15,1.15,0,0,0,4.15,27h23.7A1.15,1.15,0,0,0,29,25.85V13Z"></path><path d="M31,13H1V6.15A3.15,3.15,0,0,1,4.15,3h23.7A3.15,3.15,0,0,1,31,6.15ZM3,11H29V6.15A1.15,1.15,0,0,0,27.85,5H4.15A1.15,1.15,0,0,0,3,6.15Z"></path><polygon points="15.92 12.45 14.13 11.55 15.91 8 14.13 4.45 15.92 3.55 18.14 8 15.92 12.45"></polygon><polygon points="7.7 12.45 5.91 11.55 7.69 8 5.91 4.45 7.7 3.55 9.92 8 7.7 12.45"></polygon><polygon points="23.92 12.45 22.13 11.55 23.91 8 22.13 4.45 23.92 3.55 26.14 8 23.92 12.45"></polygon></g></svg>